<svg
  viewBox="0 0 24 24"
  xmlns="http://www.w3.org/2000/svg"
>
  <defs>
    <symbol
      id="book"
      stroke="currentcolor"
      stroke-width="1.5"
      stroke-linecap="round"
      stroke-linejoin="round"
      fill="none"
    >
      <path d="M22 16.74V4.67001C22 3.47001 21.02 2.58001 19.83 2.68001H19.77C17.67 2.86001 14.48 3.93001 12.7 5.05001L12.53 5.16001C12.24 5.34001 11.76 5.34001 11.47 5.16001L11.22 5.01001C9.44 3.90001 6.26 2.84001 4.16 2.67001C2.97 2.57001 2 3.47001 2 4.66001V16.74C2 17.7 2.78 18.6 3.74 18.72L4.03 18.76C6.2 19.05 9.55 20.15 11.47 21.2L11.51 21.22C11.78 21.37 12.21 21.37 12.47 21.22C14.39 20.16 17.75 19.05 19.93 18.76L20.26 18.72C21.22 18.6 22 17.7 22 16.74Z" />
      <path d="M12 5.48999V20.49" />
      <path d="M7.75 8.48999H5.5" />
      <path d="M8.5 11.49H5.5" />
    </symbol>
    <symbol
      id="left-arrow"
      stroke="currentcolor"
      stroke-width="1.5"
      stroke-miterlimit="10"
      stroke-linecap="round"
      stroke-linejoin="round"
      fill="none"
    >
      <path d="M15 19.92L8.47997 13.4C7.70997 12.63 7.70997 11.37 8.47997 10.6L15 4.07999" />
    </symbol>
  </defs>
</svg>
